PathFileType	4	(X/Y/Z)	Patient4_TMGait_0pt5_01_right_44.trc.trc
DataRate	CameraRate	NumFrames	NumMarkers	Units	OrigDataRate	OrigDataStartFrame	OrigNumFrames
78.212290502793	78.212290502793	5	33	mm	78.212290502793	124	       141
Frame#	Time	L.ASIS			Sacral			L.Shoulder			Chest			R.Shoulder			Neck			R.ASIS			R.Thigh.Superior			R.Thigh.Lateral			R.Thigh.Inferior			R.Patella			L.Thigh.Superior			L.Thigh.Lateral			L.Thigh.Inferior			L.Patella			L.Shank.Superior			L.Shank.Lateral			L.Shank.Inferior			R.Shank.Superior			R.Shank.Lateral			R.Shank.Inferior			R.Heel			R.Midfoot.Superior			R.Midfoot.Lateral			R.Toe			L.Heel			L.Midfoot.Lateral			L.Midfoot.Superior			L.Toe			L.Elbow			L.Wrist			R.Elbow			R.Wrist			
		X1	Y1	Z1	X2	Y2	Z2	X3	Y3	Z3	X4	Y4	Z4	X5	Y5	Z5	X6	Y6	Z6	X7	Y7	Z7	X8	Y8	Z8	X9	Y9	Z9	X10	Y10	Z10	X11	Y11	Z11	X12	Y12	Z12	X13	Y13	Z13	X14	Y14	Z14	X15	Y15	Z15	X16	Y16	Z16	X17	Y17	Z17	X18	Y18	Z18	X19	Y19	Z19	X20	Y20	Z20	X21	Y21	Z21	X22	Y22	Z22	X23	Y23	Z23	X24	Y24	Z24	X25	Y25	Z25	X26	Y26	Z26	X27	Y27	Z27	X28	Y28	Z28	X29	Y29	Z29	X30	Y30	Z30	X31	Y31	Z31	X32	Y32	Z32	X33	Y33	Z33	

124	59.542642857143	876.976134277909	951.316227522885	271.324688561096	652.319452156574	1001.744846510604	417.148329672769	850.202963996555	1415.353334765282	230.107964436449	940.439193192418	1350.039391786812	400.591147113908	848.775350355390	1434.701441439347	566.221018638983	843.172345060716	1484.280740669820	377.695801921634	868.784545350826	932.289192869611	548.079478117407	936.982460043809	753.835896245709	525.784988506523	877.834347672602	634.141598604378	591.411410278679	970.264199627891	594.576983837817	517.435240796981	995.186980578662	510.040780750920	530.597537704735	868.778131182719	723.720860644697	304.464579832615	752.964606725491	632.452620249685	237.029256038535	805.724523614193	538.449933415218	305.804412616728	788.390616612575	471.939023191344	315.214256376417	755.253068079224	407.311062758983	305.787560547583	654.800796446843	303.471694675894	252.919337580514	689.459901460140	188.685531880255	327.714606365685	977.524181952549	419.901470808593	539.155546511775	917.369391974564	307.867683492543	597.758294607798	983.944521240061	220.040032894059	546.975144036901	881.216130427870	41.767777042087	515.299848507580	1046.276417826392	108.156375959295	558.289840897496	963.224602284822	37.614902482845	590.622574206062	1167.888898951121	64.923701417301	587.648949131301	546.603527654102	38.728482438138	369.041568115598	620.730058569666	34.782057012526	288.946332307793	704.741723543803	95.326427754658	315.172948993538	832.708514682008	40.966531609356	287.438447760706	855.874145533451	1062.657717672216	108.515521521413	1079.240288377600	928.938514335429	90.345838573461	695.478260986735	1134.396021307123	689.506982677204	665.146490503751	874.851187572502	708.070297212261	
125	59.555428571429	878.320254094652	950.481962597376	273.657505733702	653.769965531890	1000.182835801063	419.583870092962	849.580089007519	1415.021108835135	233.685102818690	940.245376269754	1349.797567183111	404.012307979812	848.002737943308	1433.454274439554	569.894418847029	842.372680601416	1483.602633753087	381.514225349739	870.453815797398	931.002906925371	550.236597372813	938.718493216225	751.782629324928	527.649669886470	877.710659939701	632.377953407414	591.682573529693	970.357428888227	592.847080933437	518.066286855891	993.769882402875	507.712200917527	530.413347284573	870.144173563272	722.711239407098	305.995994626307	753.892706644696	631.645685455946	239.037653377279	806.509023307226	537.317307179426	307.513310510914	788.980817778479	470.120781648945	316.933167356210	754.500507763814	405.836182863314	307.369309306038	652.300322162290	303.812716304494	254.057326762535	684.870047799045	188.176688602371	328.324557569212	975.796901066460	417.353644560789	538.965903020164	914.880784417078	305.693653595523	597.441617772615	980.291010067956	217.471658848451	546.124411517284	875.090422926287	41.314305095692	514.539225336617	1041.072232924067	105.359245016558	556.738580007373	957.003419746376	36.702938233276	590.046682948832	1162.259752951125	60.557877305077	586.513984805780	540.217503146316	39.375565607188	368.935696040907	614.427955479311	35.061357515050	288.980670778871	698.650245152374	95.375349144135	315.246514508788	826.428687710316	40.574184951776	287.413006746032	855.417394090315	1061.924688829548	112.625474145464	1080.086109965079	930.329205431134	95.330240484757	696.973488625348	1131.054598895422	691.248024445756	668.795250261453	870.914861746229	707.381592266354	
126	59.568214285714	879.447159911000	949.825647459769	276.114002522311	655.126965760502	998.962366185408	422.049295284313	849.110851505523	1414.974248997303	237.334235695164	940.170393060730	1349.757330911569	407.493460962694	847.403509215727	1432.426343786974	573.637514459887	841.778610617078	1483.192871692791	385.425862846242	872.082116363454	930.062024761397	552.468563882431	940.539243078088	750.219932750646	529.348569105579	878.099437682567	631.193167553768	592.063592301613	970.672600227240	591.604739558097	518.529614294266	992.685231730259	505.787287447494	530.247493182001	871.882523841700	721.970075553579	307.594446435749	755.313103146830	630.864639147032	241.256818404113	808.112353899192	536.275352658953	309.343414415202	790.507282004710	468.241981590741	318.713128985885	754.449968379087	404.343909608026	309.039267964486	650.291906529231	304.397092632855	255.320585629443	680.593375340793	187.825928743768	328.922199234483	974.252971593292	415.228407949685	538.809682608322	912.572168100736	304.073577508303	597.435774244541	976.438274221181	215.300011100400	545.403224944806	868.433132227623	41.141496791673	514.121368023878	1035.336512851060	103.010680460203	555.435339401095	950.322052163279	36.112365391487	589.747598569296	1156.150371206361	56.750664297981	585.495297867317	533.886518498854	40.479350319499	368.778315281658	608.187481125308	35.554958959050	288.998016008550	692.747880791051	95.500951865708	315.250257257583	820.196371667782	40.113873178255	287.371681715332	854.730770131070	1061.430939928672	116.859409303711	1080.281076153863	931.262851579859	100.349828792844	699.266566781119	1127.619973967143	693.198615379506	673.902949765106	866.820362340859	706.897582122593	
127	59.581000000000	880.374335269317	949.426974409767	278.675401586708	656.366267857824	998.129224977446	424.537302525850	848.825410786809	1415.249245824937	241.018701091746	940.208759349715	1349.943019021099	411.006194687010	846.982031052083	1431.675684848109	577.407477577773	841.398590001544	1483.086159606459	389.383890044184	873.623311861516	929.516562526858	554.794814191562	942.336390559138	749.191363132958	530.886277281567	878.930953535082	630.587104832290	592.622498088224	971.112057936367	590.825764961627	518.885383682985	991.844583001624	504.288612126548	530.167801729771	873.918964346019	721.552727477758	309.304669547542	757.231244308678	630.141329361301	243.650540786153	810.557698125609	535.365877123950	311.272257640085	793.003348956328	466.350319472213	320.467142346400	755.122204053836	402.889921381340	310.730310192072	648.803455995145	305.292087418967	256.671869934845	676.681057663088	187.708704340896	329.462519797790	972.841365792122	413.558745314990	538.733930104538	910.434407156568	302.995990955428	597.737342743583	972.482231636725	213.571876962733	544.842338634917	861.553893113587	41.167634305710	513.987517420139	1029.289939333803	101.172889998882	554.434854003699	943.465711928713	35.795823671059	589.690064746270	1149.800062136006	53.674046555894	584.672244164942	527.653649057838	42.183998732644	368.569576254020	602.029433177804	36.341124537140	288.992604234600	687.089183429094	95.726804762521	315.158091855559	814.007198433579	39.602726266303	287.317540710092	853.811875587501	1061.225488212567	121.202303867069	1079.808426554793	931.734752367692	105.379898465369	702.292982319609	1124.215490291392	695.328969500808	680.451578062323	862.729526796608	706.665127289188	
128	59.593785714286	881.131258634477	949.342421056727	281.321004691107	657.480551358357	997.696929422620	427.060236118050	848.729415781443	1415.855805619927	244.705247787609	940.345421542810	1350.363978449515	414.522202514242	846.733260687327	1431.239415851718	581.165558480559	841.218453134895	1483.292736530726	393.342685992034	875.052528993876	929.382824571423	557.230366498999	944.006952962029	748.676857467843	532.295332105246	880.053975828979	630.490178322870	593.398616730490	971.547456155367	590.428262800429	519.212398696375	991.106603374666	503.179251636013	530.219172819051	876.191662843696	721.495645490895	311.158570626256	759.665085138078	629.498362328748	246.173361013825	813.875531648066	534.622979044530	313.267440134946	796.503521677006	464.491899071680	322.104299759119	756.551559891395	401.524771752379	312.371820414105	647.881462831770	306.559458806767	258.069521175494	673.196955335129	187.898230282069	329.902844905430	971.454289354973	412.319470011149	538.767303052191	908.375258171686	302.393734857867	598.297165147042	968.450677128878	212.277677505039	544.448036489746	854.664781593105	41.315612981015	514.063089929131	1023.088091993232	99.839850314441	553.742484672313	936.623966953122	35.692222098460	589.820844171544	1143.371102973230	51.376762153513	584.081102448996	521.581213167321	44.638114896947	368.314762435583	595.983685848253	37.509516176085	288.960919408946	681.734425021338	96.079010868475	314.947965898853	807.852720623522	39.063586447331	287.255798967963	852.661662412150	1061.337377979240	125.633759365680	1078.659446508719	931.743886811830	110.395511365339	705.966137425173	1120.956245466936	697.615501247167	688.423206206548	858.809364672537	706.723040037704	
